<?xml version="1.0" encoding="iso-8859-1"?>
<!DOCTYPE svg PUBLIC "-//W3C//DTD SVG 1.1//EN" "http://www.w3.org/Graphics/SVG/1.1/DTD/svg11.dtd">
<svg 
 version="1.1" xmlns="http://www.w3.org/2000/svg" xmlns:xlink="http://www.w3.org/1999/xlink" x="0px" y="0px" width="512px"
	 height="512px" viewBox="0 0 512 512" style="enable-background:new 0 0 512 512;" xml:space="preserve"
><g fill="#ffffff" id="afcae5a789ccd549f9c6e2a2f8115f79"><g></g><path style="display: inline;  clip-rule: evenodd;" d="M400.257,192.845c0-74.73-89.49-135.307-199.875-135.307
		C89.994,57.538,0.5,118.114,0.5,192.845c0,63.944,65.547,117.485,153.63,131.618c-7.173,23.918-19.125,52.121-37.897,66.208
		c36.161,0.054,71.819-33.315,96.264-62.798C317.241,323.633,400.257,264.809,400.257,192.845z M382.386,398.819
		c6.026,20.102,16.072,43.803,31.85,55.643c-30.392,0.046-60.36-28-80.901-52.777c-48.482-1.96-91.396-17.857-120.197-41.833
		c3.434-3.589,6.873-7.297,10.324-11.255c112.183-7.933,198.731-75.092,198.731-155.752c0-1.736-0.107-3.456-0.187-5.179
		c53.222,19.079,89.494,56.93,89.494,100.538C511.5,341.943,456.414,386.941,382.386,398.819z"></path></g></svg>