<?xml version="1.0" encoding="iso-8859-1"?>
<!DOCTYPE svg PUBLIC "-//W3C//DTD SVG 1.1//EN" "http://www.w3.org/Graphics/SVG/1.1/DTD/svg11.dtd">
<svg 
 version="1.1" xmlns="http://www.w3.org/2000/svg" xmlns:xlink="http://www.w3.org/1999/xlink" x="0px" y="0px" width="512px"
	 height="512px" viewBox="0 0 512 512" style="enable-background:new 0 0 512 512;" xml:space="preserve"
><g id="afcae5a789ccd549f9c6e2a2f80e9eea"><g></g><path style="display: inline;" d="M278.164,272.315L314.962,511.5H197.039l36.797-239.186
		c-32.621-9.572-56.452-39.707-56.452-75.426c0-43.419,35.2-78.615,78.615-78.615c43.424,0,78.615,35.196,78.615,78.615
		C334.615,232.608,310.789,262.744,278.164,272.315z M138.078,196.889c0-38.349,18.317-72.408,46.662-93.947l-19.723-34.163
		C124.965,97.307,98.77,144.08,98.77,196.889s26.195,99.582,66.248,128.11l19.723-34.164
		C156.395,269.297,138.078,235.236,138.078,196.889z M413.231,196.889c0-52.809-26.195-99.582-66.248-128.11l-19.723,34.163
		c28.353,21.539,46.662,55.599,46.662,93.947c0,38.348-18.31,72.408-46.662,93.946l19.723,34.164
		C387.036,296.471,413.231,249.697,413.231,196.889z M59.462,196.889c0-67.465,33.995-126.967,85.786-162.359L125.594,0.5
		C62.095,42.806,20.154,115.029,20.154,196.889s41.941,154.083,105.44,196.389l19.654-34.029
		C93.457,323.855,59.462,264.353,59.462,196.889z M386.406,0.5L366.76,34.529c51.784,35.393,85.779,94.895,85.779,162.359
		c0,67.464-33.995,126.967-85.779,162.359l19.646,34.029c63.499-42.306,105.439-114.529,105.439-196.389S449.905,42.806,386.406,0.5
		z"></path></g></svg>